<svg class="icon" viewBox="0 0 1024 1024" xmlns="http://www.w3.org/2000/svg" width="200" height="200"><defs><style/></defs><path d="M513.183 532.443c-62.243 0-120.763-24.226-164.778-68.216-44.021-43.993-68.263-102.486-68.263-164.703 0-62.216 24.242-120.708 68.263-164.702 44.015-43.99 102.535-68.217 164.778-68.217 62.244 0 120.765 24.227 164.78 68.217 44.018 43.993 68.26 102.485 68.26 164.702s-24.242 120.71-68.26 164.703c-44.015 43.989-102.535 68.216-164.78 68.216zm0-414.614c-100.254 0-181.818 81.507-181.818 181.694 0 100.187 81.564 181.695 181.818 181.695C613.438 481.218 695 399.71 695 299.523c0-100.186-81.562-181.694-181.817-181.694zM879.044 956.94H146.07l-1.243-24.303a368.955 368.955 0 0 1-.478-18.762c0-49.263 9.751-97.063 28.983-142.072 18.563-43.444 45.128-82.45 78.956-115.937 33.812-33.469 73.184-59.746 117.027-78.101 45.386-19.003 93.581-28.637 143.245-28.637 49.665 0 97.862 9.634 143.248 28.637 43.842 18.356 83.215 44.632 117.026 78.1 33.829 33.487 60.394 72.494 78.955 115.938 19.231 45.01 28.982 92.809 28.982 142.072 0 6.246-.161 12.56-.48 18.768l-1.247 24.298zm-683.366-51.223h633.765c-4.38-169.13-144.847-305.367-316.883-305.367-172.035 0-312.501 136.237-316.882 305.367z"/></svg>