<svg class="icon" viewBox="0 0 1024 1024" xmlns="http://www.w3.org/2000/svg" width="200" height="200"><defs><style/></defs><path d="M880.213 870.4h-716.8V153.6h318.294V85.333h-335.36c-28.16 0-51.2 23.04-51.2 51.2v750.934c0 28.16 23.04 51.2 51.2 51.2H897.28c28.16 0 51.2-23.04 51.2-51.2v-346.88h-68.267V870.4z"/><path d="M914.347 763.733c-18.774 0-34.134-15.36-34.134-34.133V529.067c0-18.774 15.36-34.134 34.134-34.134s34.133 15.36 34.133 34.134V729.6c0 18.773-14.933 34.133-34.133 34.133zM504.747 153.6h-89.6c-18.774 0-34.134-15.36-34.134-34.133s15.36-34.134 34.134-34.134h89.6c18.773 0 34.133 15.36 34.133 34.134S523.947 153.6 504.747 153.6zm188.586-68.267h220.16c19.2 0 34.987 15.787 34.987 34.987 0 19.2-15.787 34.987-34.987 34.987h-220.16c-19.2 0-34.986-15.787-34.986-34.987 0-19.2 15.36-34.987 34.986-34.987z"/><path d="M948.48 120.32v220.16c0 19.2-15.787 34.987-34.987 34.987-19.2 0-34.986-15.787-34.986-34.987V120.32c0-19.2 15.786-34.987 34.986-34.987 19.2 0 34.987 15.787 34.987 34.987z"/><path d="M938.24 95.573l.427.427c13.226 13.227 13.226 34.56 0 47.787L491.52 590.933c-13.227 13.227-34.56 13.227-47.787 0l-.426-.426c-13.227-13.227-13.227-34.56 0-47.787L890.453 95.573c13.227-13.226 34.56-13.226 47.787 0z"/></svg>