<svg class="icon" viewBox="0 0 1024 1024" xmlns="http://www.w3.org/2000/svg" width="200" height="200"><defs><style/></defs><path d="M515.137 456.391h54.867v34.677h-54.867zm-41.978 62.396c-4.905-3.08-7.3-7.528-7.3-13.346 0-6.844 2.51-11.179 7.643-13.004 1.597-.57 4.562-.912 8.897-1.14V456.39h-7.87c-17.567 0-29.887 2.852-37.073 8.67-11.75 9.581-17.681 22.471-17.681 38.669 0 8.441 1.711 16.426 5.133 23.84 3.422 7.415 8.213 13.347 14.145 17.567 4.905 3.536 10.152 6.046 15.855 7.3 5.704 1.37 13.803 2.054 24.525 2.054h2.852v-33.537c-4.449-.342-7.529-1.14-9.126-2.167zm88.176 13.346c-9.81-7.072-23.156-10.722-40.038-10.722h-6.16v33.194c5.361.342 9.011.912 10.836 1.825 5.362 2.395 7.985 6.958 7.985 13.688 0 8.213-3.992 12.776-11.977 13.689a95.781 95.781 0 0 1-6.844.228v34.79c16.198 0 27.719-1.254 34.677-3.65 6.958-2.395 13.004-7.528 17.909-15.399 6.73-9.81 10.038-20.532 10.038-32.395-.114-15.4-5.59-27.149-16.426-35.248zm-139.165 52.13H482.4v34.677H422.17zm76.54 34.677v63.194-63.194H482.4v63.194h32.738V618.94H498.71zm0-225.743v63.194h16.427v-63.194h-32.738v63.194h16.312zm0 161.294h7.872c3.194 0 6.045.114 8.555.228v-33.194h-16.312v32.966z"/><path d="M482.399 584.263h16.312v34.677h-16.312zm16.312-62.738h-3.878c-5.02 0-9.126-.114-12.548-.456v33.536h16.312v-33.08zm3.194 62.738h-3.194v34.677h16.312v-34.791c-3.422 0-7.757.114-13.118.114zm-10.95-93.195h7.87v-34.677h-16.312v34.905c2.281-.114 5.133-.228 8.441-.228z"/><path d="M498.71 456.391h16.313v34.677H498.71zM867.156 334.11h-96.96c-4.79 0-9.467-2.053-12.66-5.59a17.208 17.208 0 0 1-4.335-13.117c1.14-12.434 2.28-22.814 3.193-30.913H258.71c3.65 9.353 7.3 19.962 9.354 28.631 1.14 5.133 0 10.495-3.308 14.487-3.194 4.106-8.213 6.502-13.46 6.502H130.267c-16.996 0-30.799-13.802-30.799-30.799V178.747c0-16.997 13.803-30.8 30.8-30.8h736.887c16.996 0 30.798 13.803 30.798 30.8v124.45c0 16.995-13.802 30.912-30.798 30.912zm-78.024-34.22h74.716v-117.72H133.803v117.605h94.336c-4.905-13.232-10.38-25.323-10.495-25.551-2.395-5.248-1.939-11.407 1.255-16.312 3.194-4.905 8.555-7.871 14.373-7.871h542.4c4.904 0 9.581 2.167 12.889 5.817s4.79 8.556 4.106 13.46c-.228.229-1.596 11.522-3.536 30.571zm78.024-117.72z"/><path d="M612.438 891.908a17.147 17.147 0 0 1-14.03-7.3l-62.739-90.001-97.871 50.76c-5.02 2.624-10.95 2.51-15.97-.114l-82.472-44.258-132.32 82.015c-5.818 3.65-13.232 3.422-18.936-.57-5.59-3.992-8.327-10.95-6.844-17.567.913-3.992 86.693-402.094 53.499-543.882-3.308-14.259-13.575-38.441-17.225-46.54-2.395-5.247-1.939-11.407 1.255-16.312s8.555-7.871 14.373-7.871h542.4c4.904 0 9.58 2.167 12.889 5.818s4.79 8.555 4.106 13.46c0 .228-2.395 19.05-5.247 49.164-5.703 59.087-12.205 147.605-10.722 233.956 2.167 130.153 21.445 186.389 37.3 210.572 3.537 5.475 3.765 12.433.343 18.137-3.308 5.589-9.582 8.897-16.084 8.327l-108.138-8.67L627.04 883.81c-2.966 4.905-8.327 7.985-14.03 8.213-.229-.114-.343-.114-.571-.114zm-71.293-136.541c5.475 0 10.722 2.623 14.03 7.3l56.35 80.761 54.754-89.43c3.422-5.475 9.582-8.67 15.97-8.099l88.403 7.072c-17.338-44.144-26.92-111.103-28.403-199.963-1.483-87.833 5.133-177.72 10.95-237.72 1.141-12.434 2.282-22.814 3.194-30.913H258.71c3.65 9.353 7.3 19.962 9.354 28.631 28.973 123.537-24.069 413.73-45.286 519.814l106.883-66.16c5.247-3.194 11.75-3.422 17.11-.57l83.271 44.715 103.233-53.499c2.51-1.369 5.133-1.94 7.87-1.94z"/></svg>