<svg class="icon" viewBox="0 0 1024 1024" xmlns="http://www.w3.org/2000/svg" width="200" height="200"><defs><style/></defs><path d="M512 448c-35.296 0-64-28.704-64-64s28.704-64 64-64 64 28.704 64 64-28.704 64-64 64m0-192c-70.592 0-128 57.408-128 128s57.408 128 128 128 128-57.408 128-128-57.408-128-128-128"/><path d="M768 797.632v-69.92a151.904 151.904 0 0 0-151.712-151.68H407.712A151.904 151.904 0 0 0 256 727.68v69.92c-78.368-70.24-128-172-128-285.6 0-212.096 171.936-384 384-384s384 171.904 384 384c0 113.6-49.632 215.36-128 285.632m-448 46.56v-116.48a87.776 87.776 0 0 1 87.712-87.68h208.576A87.776 87.776 0 0 1 704 727.68v116.48a381.568 381.568 0 0 1-384 0M512 64C264.96 64 64 264.96 64 512c0 246.976 200.96 448 448 448s448-201.024 448-448c0-247.04-200.96-448-448-448"/></svg>